<svg id="getting-the-vaccine-priority-groups-and-citizens" xmlns="http://www.w3.org/2000/svg" width="30.099" height="51.852" viewBox="0 0 30.099 51.852">
  <path id="Path_10" data-name="Path 10" d="M54.884,22.909V20.94a.767.767,0,1,1,1.534,0v1.97a.767.767,0,1,1-1.534,0ZM59.8,33.649h1.866a.767.767,0,0,0,0-1.534H59.8a.765.765,0,0,0-.767.767A.779.779,0,0,0,59.8,33.649Zm0-4.976h1.866a.767.767,0,0,0,0-1.534H59.8a.765.765,0,0,0-.767.767A.779.779,0,0,0,59.8,28.673Zm0-4.976h1.866a.767.767,0,0,0,0-1.534H59.8a.765.765,0,0,0-.767.767A.779.779,0,0,0,59.8,23.7Zm0-4.976h1.866a.767.767,0,0,0,0-1.534H59.8a.765.765,0,0,0-.767.767A.779.779,0,0,0,59.8,18.721Zm6.78-5.473V35.681a2.914,2.914,0,0,1-2.529,2.9l-.56,5.017a.765.765,0,0,1-.767.684H61.477v6.8a.765.765,0,0,1-.767.767.753.753,0,0,1-.767-.767v-6.8H58.7a.765.765,0,0,1-.767-.684l-.56-5.017a2.946,2.946,0,0,1-2.529-2.9V26.952a.767.767,0,1,1,1.534,0v8.728a1.411,1.411,0,0,0,1.41,1.41h5.805A1.411,1.411,0,0,0,65,35.681V13.746H56.419v3.006a.767.767,0,1,1-1.534,0v-3.5l-2.3-2.882a.761.761,0,0,1-.083-.809.752.752,0,0,1,.684-.435h4.872V4.312H56.045a.765.765,0,0,1-.767-.767v-1.7A1.849,1.849,0,0,1,57.124,0h7.194a1.849,1.849,0,0,1,1.845,1.845V3.525a.765.765,0,0,1-.767.767H63.385V9.122h4.872a.752.752,0,0,1,.684.435.807.807,0,0,1-.083.809Zm-4.52,29.5.456-4.126H58.969l.456,4.126ZM56.813,2.778h7.837V1.845a.327.327,0,0,0-.332-.332H57.144a.327.327,0,0,0-.332.332Zm2.778,6.344h2.281V4.312H59.591Zm-4.81,1.534,1.244,1.576h9.433L66.7,10.656ZM80.987,43.745V39.164a.549.549,0,0,0-.539-.539h-9.5a.549.549,0,0,0-.539.539V49.758a.549.549,0,0,0,.539.539h9.5a.549.549,0,0,0,.539-.539V47.83a.767.767,0,0,1,1.534,0v1.928a2.079,2.079,0,0,1-2.073,2.073h-9.5a2.079,2.079,0,0,1-2.073-2.073V39.164a2.041,2.041,0,0,1,1.97-2.053V32.882a.765.765,0,0,1,.767-.767h8.148a.765.765,0,0,1,.767.767v4.229a2.055,2.055,0,0,1,1.97,2.053v4.582a.757.757,0,1,1-1.513,0Zm-8.6-10.1V37.09h6.634V33.649ZM75.7,40.76a3.711,3.711,0,1,1-3.711,3.711A3.707,3.707,0,0,1,75.7,40.76Zm0,1.513a2.177,2.177,0,1,0,2.177,2.177A2.177,2.177,0,0,0,75.7,42.273Z" transform="translate(-52.422)" fill="#021859"/>
</svg>
