<svg id="how-will-we-be-vaccinated" xmlns="http://www.w3.org/2000/svg" width="39.018" height="51.852" viewBox="0 0 39.018 51.852">
  <path id="Path_11" data-name="Path 11" d="M69.918,11.258v1.97a.767.767,0,1,1-1.534,0v-1.97a.765.765,0,0,1,.767-.767A.793.793,0,0,1,69.918,11.258Zm0-10.491V7.049a.767.767,0,1,1-1.534,0V1.534H39.691v6.51a.765.765,0,0,1-.767.767H32.434V40.179a.767.767,0,0,1-1.534,0V8.044a.753.753,0,0,1,.228-.539L38.405.228A.753.753,0,0,1,38.944,0H69.151A.765.765,0,0,1,69.918.767ZM38.177,7.277V2.612L33.512,7.277ZM69.151,16.5a.765.765,0,0,0-.767.767V50.318H32.434V44.264a.767.767,0,1,0-1.534,0v6.821a.765.765,0,0,0,.767.767H69.151a.765.765,0,0,0,.767-.767V17.249A.761.761,0,0,0,69.151,16.5ZM38.177,25.231a.765.765,0,0,0,.767.767H61.9a.767.767,0,0,0,0-1.534H38.944A.779.779,0,0,0,38.177,25.231Zm.767,6.469H61.9a.767.767,0,0,0,0-1.534H38.944a.765.765,0,0,0-.767.767A.753.753,0,0,0,38.944,31.7ZM53.063,8.044v3.11h3.11a.765.765,0,0,1,.767.767v3.773a.765.765,0,0,1-.767.767h-3.11v3.11a.765.765,0,0,1-.767.767H48.523a.765.765,0,0,1-.767-.767v-3.11h-3.11a.765.765,0,0,1-.767-.767V11.9a.765.765,0,0,1,.767-.767h3.11V8.023a.765.765,0,0,1,.767-.767H52.3A.8.8,0,0,1,53.063,8.044ZM52.3,12.668a.765.765,0,0,1-.767-.767V8.791H49.29V11.9a.765.765,0,0,1-.767.767h-3.11v2.239h3.11a.765.765,0,0,1,.767.767v3.11h2.239v-3.11a.765.765,0,0,1,.767-.767h3.11V12.668ZM38.177,39.64a.765.765,0,0,1,.767-.767h2.8a.765.765,0,0,1,.767.767v4.146a.765.765,0,0,1-.767.767h-2.8a.765.765,0,0,1-.767-.767Zm1.513,3.4h1.265V40.408H39.691Zm8.77-7.153a.765.765,0,0,1,.767.767v7.153a.765.765,0,0,1-.767.767h-2.8a.765.765,0,0,1-.767-.767V36.655a.765.765,0,0,1,.767-.767ZM47.693,37.4H46.429V43.02h1.265Zm7.464,1.472a.765.765,0,0,1,.767.767v4.146a.765.765,0,0,1-.767.767h-2.8a.765.765,0,0,1-.767-.767V39.64a.765.765,0,0,1,.767-.767Zm-.746,1.534H53.146v2.633h1.265Zm8.231-3.753v7.153a.765.765,0,0,1-.767.767h-2.8a.765.765,0,0,1-.767-.767V36.655a.765.765,0,0,1,.767-.767h2.8A.753.753,0,0,1,62.641,36.655Zm-1.513.746H59.863V43.02h1.265Z" transform="translate(-30.9 0)" fill="#021859"/>
</svg>
