<svg xmlns="http://www.w3.org/2000/svg" width="12.312" height="10" viewBox="0 0 12.312 10">
  <path id="Icon_awesome-twitter" data-name="Icon awesome-twitter" d="M11.047,5.873c.008.109.008.219.008.328a7.13,7.13,0,0,1-7.18,7.18A7.131,7.131,0,0,1,0,12.248a5.22,5.22,0,0,0,.609.031A5.054,5.054,0,0,0,3.742,11.2a2.528,2.528,0,0,1-2.359-1.75,3.182,3.182,0,0,0,.477.039A2.669,2.669,0,0,0,2.523,9.4,2.524,2.524,0,0,1,.5,6.928V6.9a2.541,2.541,0,0,0,1.141.32A2.527,2.527,0,0,1,.859,3.842a7.173,7.173,0,0,0,5.2,2.641A2.849,2.849,0,0,1,6,5.9a2.526,2.526,0,0,1,4.367-1.727,4.968,4.968,0,0,0,1.6-.609,2.517,2.517,0,0,1-1.109,1.391,5.059,5.059,0,0,0,1.453-.391,5.424,5.424,0,0,1-1.266,1.3Z" transform="translate(0 -3.381)" fill="#333"/>
</svg>
