<svg id="vaccine-information" xmlns="http://www.w3.org/2000/svg" width="51.769" height="51.852" viewBox="0 0 51.769 51.852">
  <path id="Path_12" data-name="Path 12" d="M43.962,32.166a2.6,2.6,0,0,0-2.485,1.843h-2.3a9.4,9.4,0,0,0-2.236-5.384l1.636-1.636a2.472,2.472,0,0,0,1.2.311,2.592,2.592,0,1,0-2.588-2.588,2.493,2.493,0,0,0,.311,1.222l-1.636,1.636a9.4,9.4,0,0,0-5.384-2.236v-2.3a2.629,2.629,0,0,0,1.843-2.485,2.588,2.588,0,1,0-3.334,2.485v2.278a9.574,9.574,0,0,0-5.384,2.236l-1.636-1.636a2.493,2.493,0,0,0,.311-1.222,2.6,2.6,0,1,0-5.2,0,2.6,2.6,0,0,0,.766,1.843,2.639,2.639,0,0,0,1.843.766,2.472,2.472,0,0,0,1.2-.311l1.636,1.636A9.377,9.377,0,0,0,21.2,30.634a.759.759,0,0,0,1.367.663,7.977,7.977,0,1,1,7.186,11.451A7.9,7.9,0,0,1,23.4,39.579a.768.768,0,0,0-1.222.932c.1.145.228.29.352.435l-1.636,1.636a2.6,2.6,0,1,0,.642,4.142h0A2.567,2.567,0,0,0,22.3,44.88a2.493,2.493,0,0,0-.311-1.222l1.615-1.615a9.491,9.491,0,0,0,5.384,2.236v2.3a2.629,2.629,0,0,0-1.843,2.485,2.588,2.588,0,1,0,3.334-2.485v-2.3a9.4,9.4,0,0,0,5.384-2.236L37.5,43.679a2.493,2.493,0,0,0-.311,1.222,2.6,2.6,0,0,0,.766,1.843h0a2.567,2.567,0,0,0,1.843.766,2.594,2.594,0,1,0-1.2-4.887l-1.636-1.636A9.4,9.4,0,0,0,39.2,35.6h2.3a2.629,2.629,0,0,0,2.485,1.843,2.589,2.589,0,0,0,2.588-2.588A2.631,2.631,0,0,0,43.962,32.166Zm-4.928-8.242a1.063,1.063,0,0,1,.766-.311,1.1,1.1,0,0,1,.766.311,1.069,1.069,0,1,1-1.512,1.512,1.063,1.063,0,0,1-.311-.766A.952.952,0,0,1,39.034,23.924Zm-9.318-4.473a1.077,1.077,0,1,1-1.077,1.077A1.069,1.069,0,0,1,29.715,19.452Zm-10.83,6.005a1.077,1.077,0,0,1,.766-1.843,1.1,1.1,0,0,1,.766.311,1.1,1.1,0,0,1,0,1.532A1.1,1.1,0,0,1,18.885,25.457ZM20.4,45.605h0a1.075,1.075,0,0,1-1.512,0,1.077,1.077,0,0,1,.766-1.843,1.1,1.1,0,0,1,.766.311,1.063,1.063,0,0,1,.311.766A1.177,1.177,0,0,1,20.4,45.605Zm9.318,4.473A1.077,1.077,0,1,1,30.792,49,1.069,1.069,0,0,1,29.715,50.078ZM39.8,43.762a1.1,1.1,0,0,1,.766.311,1.069,1.069,0,1,1-1.512,1.512h0a1.1,1.1,0,0,1,0-1.532A1.049,1.049,0,0,1,39.8,43.762Zm4.162-7.931a1.077,1.077,0,1,1,1.077-1.077A1.069,1.069,0,0,1,43.962,35.831Zm-26.009-.311h2.3a10.381,10.381,0,0,0,.207,1.367.772.772,0,0,0,.745.6.456.456,0,0,0,.166-.021.773.773,0,0,0,.58-.911,8.54,8.54,0,0,1-.207-1.781.764.764,0,0,0-.766-.766H17.953a2.629,2.629,0,0,0-2.485-1.843,2.588,2.588,0,1,0,0,5.177A2.56,2.56,0,0,0,17.953,35.521Zm-2.485.311a1.077,1.077,0,1,1,1.077-1.077A1.083,1.083,0,0,1,15.469,35.831ZM13.75,18.458l1.325,1.325a.75.75,0,0,0,1.077,0,.775.775,0,0,0,0-1.077l-1.325-1.325a6.872,6.872,0,0,0,1.47-3.52h1.864a.766.766,0,0,0,0-1.532H16.3a6.768,6.768,0,0,0-1.47-3.541l1.325-1.325a.761.761,0,1,0-1.077-1.077L13.75,7.71a6.872,6.872,0,0,0-3.52-1.47V4.376A.766.766,0,1,0,8.7,4.4V6.261a6.8,6.8,0,0,0-3.52,1.47L3.852,6.406A.761.761,0,0,0,2.775,7.483L4.1,8.808a6.867,6.867,0,0,0-1.47,3.541H.766a.766.766,0,1,0,0,1.532H2.63A6.8,6.8,0,0,0,4.1,17.4L2.775,18.727a.775.775,0,0,0,0,1.077.75.75,0,0,0,1.077,0l1.325-1.325a6.867,6.867,0,0,0,3.541,1.47v1.864a.764.764,0,0,0,.766.766.752.752,0,0,0,.766-.766V19.949A7.087,7.087,0,0,0,13.75,18.458ZM4.1,13.094a5.363,5.363,0,1,1,5.363,5.363A5.364,5.364,0,0,1,4.1,13.094Zm6.047-1.512a.932.932,0,1,1,.932-.932A.928.928,0,0,1,10.147,11.583Zm2.174,3.582a.932.932,0,1,1-.932-.932A.928.928,0,0,1,12.321,15.165Zm20,18.74a1.263,1.263,0,1,1,1.263,1.263A1.255,1.255,0,0,1,32.325,33.905Zm-6.481,3.375a1.263,1.263,0,1,1,1.263-1.263A1.268,1.268,0,0,1,25.843,37.281Zm2.526-5.425a.932.932,0,1,1,.932-.932A.928.928,0,0,1,28.369,31.855Zm4,6.751a.932.932,0,1,1-.932-.932A.928.928,0,0,1,32.366,38.606ZM7.724,13.467a.932.932,0,1,1-.932-.932A.928.928,0,0,1,7.724,13.467ZM51.769,9.3a.764.764,0,0,1-.766.766H49.139a6.8,6.8,0,0,1-1.47,3.52l1.325,1.325a.775.775,0,0,1,0,1.077.75.75,0,0,1-1.077,0l-1.325-1.325a6.867,6.867,0,0,1-3.541,1.47V18a.766.766,0,0,1-1.532,0V16.138a6.941,6.941,0,0,1-3.541-1.47l-1.325,1.325a.75.75,0,0,1-1.077,0,.775.775,0,0,1,0-1.077L36.9,13.591a6.867,6.867,0,0,1-1.47-3.541H33.567a.766.766,0,1,1,0-1.532h1.864A6.941,6.941,0,0,1,36.9,4.977L35.576,3.652a.761.761,0,0,1,1.077-1.077L37.978,3.9A6.872,6.872,0,0,1,41.5,2.43V.566a.766.766,0,1,1,1.532,0V2.43A6.912,6.912,0,0,1,46.571,3.9L47.9,2.575a.761.761,0,0,1,1.077,1.077L47.648,4.977c.083.1.145.186.228.29a.756.756,0,1,1-1.222.89,5.354,5.354,0,1,0,1.015,3.127.764.764,0,0,1,.766-.766h2.588A.793.793,0,0,1,51.769,9.3ZM40.545,8.394a.932.932,0,1,1,.932-.932A.928.928,0,0,1,40.545,8.394Zm4.307-.186a.932.932,0,1,1-.932.932A.941.941,0,0,1,44.853,8.207Zm-4.494,3.686a.932.932,0,1,1,.932.932A.928.928,0,0,1,40.359,11.893Z" transform="translate(0 0.2)" fill="#021859"/>
</svg>
