<svg id="what-to-expect" xmlns="http://www.w3.org/2000/svg" width="41.117" height="51.852" viewBox="0 0 41.117 51.852">
  <path id="Path_17" data-name="Path 17" d="M66.917,6.738v5.038a.767.767,0,1,1-1.534,0V7.484c-2.654-.1-11.653-.85-19.034-5.764C38.987,6.634,30.009,7.36,27.334,7.484V25.938a25.921,25.921,0,0,0,2.654,11.9.786.786,0,0,1-.332,1.037.682.682,0,0,1-.352.083.778.778,0,0,1-.684-.415A27.259,27.259,0,0,1,25.8,25.938V6.738a.765.765,0,0,1,.767-.767c.1,0,11.114-.083,19.345-5.806a.747.747,0,0,1,.871,0c8.252,5.743,19.242,5.806,19.345,5.806a.753.753,0,0,1,.539.228A.7.7,0,0,1,66.917,6.738Zm-.767,14.493a.765.765,0,0,0-.767.767v3.94c0,8.543-3.214,15.24-9.538,19.905a27.6,27.6,0,0,1-9.5,4.479,26.583,26.583,0,0,1-14.286-9.165.769.769,0,0,0-1.223.933,27.584,27.584,0,0,0,15.344,9.766c.041,0,.1.021.145.021a.353.353,0,0,0,.145-.021,28.387,28.387,0,0,0,10.2-4.748c4.665-3.421,10.2-9.87,10.2-21.17v-3.96A.691.691,0,0,0,66.149,21.231Zm0-5.992a.765.765,0,0,0-.767.767v1.97a.767.767,0,1,0,1.534,0V15.985A.748.748,0,0,0,66.149,15.239Zm-34.875,10.7V11.714a.742.742,0,0,1,.664-.746A42.657,42.657,0,0,0,46.016,6.489a.752.752,0,0,1,.726,0,43.817,43.817,0,0,0,14.079,4.479.776.776,0,0,1,.664.746V25.938c0,7.091-2.592,12.669-7.672,16.546a23.9,23.9,0,0,1-7.195,3.691.648.648,0,0,1-.456,0,23.9,23.9,0,0,1-7.195-3.691C33.845,38.607,31.274,33.029,31.274,25.938Zm1.514,0c0,6.594,2.384,11.756,7.07,15.323a22.21,22.21,0,0,0,6.511,3.38,22.42,22.42,0,0,0,6.49-3.38c4.686-3.566,7.07-8.729,7.07-15.323V12.378A44.626,44.626,0,0,1,46.348,8.023a44.853,44.853,0,0,1-13.581,4.354v13.56Zm6.739.767H37.66a.767.767,0,1,1,0-1.534h1.866A6.95,6.95,0,0,1,41,21.625L39.671,20.3A.762.762,0,0,1,40.75,19.22l1.327,1.327a6.876,6.876,0,0,1,3.546-1.472V17.209a.767.767,0,0,1,1.534,0v1.866A6.95,6.95,0,0,1,50.7,20.547l1.327-1.327A.762.762,0,1,1,53.107,20.3L51.78,21.625a6.876,6.876,0,0,1,1.472,3.546h1.866a.767.767,0,1,1,0,1.534H53.253a6.95,6.95,0,0,1-1.472,3.546l1.327,1.327a.776.776,0,0,1,0,1.078.751.751,0,0,1-1.078,0L50.7,31.329A6.876,6.876,0,0,1,47.157,32.8v1.866a.767.767,0,0,1-1.534,0V32.8a6.95,6.95,0,0,1-3.546-1.472L40.75,32.656a.751.751,0,0,1-1.078,0,.776.776,0,0,1,0-1.078L41,30.251A6.848,6.848,0,0,1,39.526,26.705ZM41,25.938a5.37,5.37,0,1,0,5.37-5.37A5.371,5.371,0,0,0,41,25.938Zm3.608-.912a.933.933,0,1,0-.933-.933A.929.929,0,0,0,44.606,25.026Zm4.313,1.679a.933.933,0,1,0-.933-.933A.929.929,0,0,0,48.919,26.705Zm-4.5,1.825a.933.933,0,1,0,.933-.933A.929.929,0,0,0,44.42,28.53Z" transform="translate(-25.8 -0.025)" fill="#021859"/>
</svg>
