<svg xmlns="http://www.w3.org/2000/svg" width="10" height="10" viewBox="0 0 10 10">
  <path id="Icon_ionic-logo-whatsapp" data-name="Icon ionic-logo-whatsapp" d="M7.341,2.25A4.89,4.89,0,0,0,2.432,7.121a4.821,4.821,0,0,0,.7,2.515L2.25,12.25l2.718-.863A4.883,4.883,0,1,0,7.341,2.25ZM9.782,8.971a1.268,1.268,0,0,1-.868.56c-.23.012-.237.178-1.492-.367a5.122,5.122,0,0,1-2.07-1.957,2.407,2.407,0,0,1-.463-1.3,1.391,1.391,0,0,1,.478-1.021.481.481,0,0,1,.34-.143c.1,0,.163,0,.236,0s.183-.015.278.237.322.874.351.937a.227.227,0,0,1,0,.218.853.853,0,0,1-.133.2c-.066.07-.138.157-.2.211s-.133.124-.065.252a3.757,3.757,0,0,0,.665.887,3.425,3.425,0,0,0,.984.654c.123.067.2.06.273-.021s.327-.351.415-.473.171-.1.284-.052.718.37.841.436.205.1.235.154A1.031,1.031,0,0,1,9.782,8.971Z" transform="translate(-2.25 -2.25)" fill="#333"/>
</svg>
